<svg xmlns="http://www.w3.org/2000/svg" viewBox="0 0 448 512">
  <path d="M0 180V56a24 24 0 0124-24h124a12 12 0 0112 12v24a12 12 0 01-12 12H48v100a12 12 0 01-12 12H12a12 12 0 01-12-12zM288 44v24a12 12 0 0012 12h100v100a12 12 0 0012 12h24a12 12 0 0012-12V56a24 24 0 00-24-24H300a12 12 0 00-12 12zm148 276h-24a12 12 0 00-12 12v100H300a12 12 0 00-12 12v24a12 12 0 0012 12h124a24 24 0 0024-24V332a12 12 0 00-12-12zM160 468v-24a12 12 0 00-12-12H48V332a12 12 0 00-12-12H12a12 12 0 00-12 12v124a24 24 0 0024 24h124a12 12 0 0012-12z"/>
</svg>