<svg xmlns="http://www.w3.org/2000/svg" viewBox="0 0 576 512">
  <path d="M554 161.2L416 224v288l139.9-56a32 32 0 0020.1-29.7V176a16 16 0 00-22-14.8zM20.2 216A32 32 0 000 245.7V496a16 16 0 0022 14.9L160 448V215a302.8 302.8 0 01-21.3-46.5zM288 359.7a47.8 47.8 0 01-36.5-17A1048.6 1048.6 0 01192 266v182l192 64V266c-19 27-39.8 53.5-59.5 76.7a47.8 47.8 0 01-36.5 17z" opacity=".4"/>
  <path d="M288 0a126 126 0 00-126 126c0 56.3 82.3 158.8 113.9 196a15.8 15.8 0 0024.2 0C331.6 284.8 414 182.3 414 126A126 126 0 00288 0zm0 168a42 42 0 1142-42 42 42 0 01-42 42z"/>
</svg>